<?xml version="1.0" encoding="UTF-8"?>
<svg xmlns="http://www.w3.org/2000/svg" viewBox="0 0 1489.08 1648.14" >
      <g>
        <path
          stroke="currentColor"
          stroke-linecap="round"
          stroke-linejoin="round"
          stroke-width="2"
          d="m475.1,1647.14c-22.34,0-45.08-2.89-69.54-8.85-14.12-3.44-28.26-7.84-41.93-12.1l-1.21-.38c-7.78-2.42-13.85-9.47-15.84-18.4-1.95-8.76.39-17.19,6.28-22.57,4.75-4.34,10.87-7.43,16.78-10.41,1.46-.74,2.92-1.47,4.36-2.23,2.76-1.45,5.85-2.43,8.85-3.39,1.37-.44,2.78-.89,4.15-1.38l.28-.1.05-.29c.06-.37.14-.73.22-1.07.18-.76.35-1.48.22-2.19-2.35-13.61,5.88-20.35,13.19-23.6,11.7-5.21,21.27-8.34,30.1-9.84,11.73-2,23.79-3.24,35.46-4.43,6.24-.64,12.7-1.31,19.03-2.08,3.5-.43,7.48-1.04,10.38-2.97,33.88-22.54,64.69-51.93,91.56-87.34.51-.67.85-1.42,1.33-2.46.26-.56.56-1.21.94-1.98l.3-.6-.66-.12c-81.75-14.69-153.28-34.74-218.69-61.3-73.54-29.86-137.81-67.24-196.48-114.25l-.46-.37-.29.51c-10.15,17.73-19.13,37.28-16.14,60.05,1.71,13.02,9.09,23.89,22.57,33.25,2.45,1.7,4.92,3.37,7.39,5.04,7.05,4.77,14.35,9.7,20.92,15.24,6.01,5.08,11.41,11.1,16.64,16.92,1.58,1.76,3.17,3.52,4.76,5.26,1.85,2.01,3.11,4.62,4.01,6.68,2.12,4.88,2.15,9.37.08,12.66-1.92,3.05-5.59,4.82-10.33,4.99-.65.02-1.31.03-1.96.03-5.68,0-11.51-.83-17.15-1.64-2.47-.35-5.02-.72-7.53-1.01-1.68-.19-3.36-.57-5.32-1-1.01-.22-2.1-.46-3.3-.7l-.69-.14.1.7c.21,1.51.41,2.94.61,4.31.39,2.74.77,5.33,1.06,7.88,1.48,12.77-.31,22.08-5.3,27.7-3.59,4.03-8.82,6.07-15.56,6.07-4.72,0-10.21-1.01-16.31-3-4.67-1.52-9.18-3.36-13.94-5.31-2.2-.9-4.43-1.81-6.7-2.7l-.4-.16-.21.38c-.73,1.3-1.42,2.57-2.08,3.82-1.46,2.72-2.83,5.29-4.5,7.64-2.98,4.18-5.94,8.19-9.52,11.3-3.95,3.43-8.19,5.18-12.6,5.18-3.55,0-7.2-1.14-10.83-3.38-3.71-2.29-6.74-4.83-9-7.56-29.47-35.58-48.26-67.66-59.12-100.96-17.41-53.39-15.46-107.07,5.96-164.11,7.26-19.34,16.7-38.68,28.83-59.13.81-1.36,1.5-2.82,2.18-4.23.32-.67.64-1.35.98-2.03l.12-.25-.14-.24c-1.57-2.6-3.14-5.16-4.7-7.71-3.44-5.61-6.69-10.92-9.83-16.44-21.11-37.06-33.32-72.61-37.33-108.67-2.38-21.42-1.72-44.51,2.01-70.58,2.68-18.71,10.51-35.27,18.09-51.28,1.26-2.66,2.34-5.45,3.4-8.16.49-1.27.99-2.55,1.51-3.82l.11-.28-.2-.23c-1.15-1.36-2.27-2.68-3.37-3.97-2.3-2.69-4.47-5.23-6.56-7.84-28.32-35.34-30.7-72.87-7.05-111.55.33-.53.65-1.07.97-1.61,1.37-2.29,2.78-4.65,4.54-6.6,5.36-5.96,6.06-11.1,2.51-18.33-3.33-6.79-1.83-13.8,4.12-19.23,21.39-19.53,46.55-31,74.78-34.11,7.4-.81,14.79-1.07,22.62-1.35,3.6-.13,7.33-.26,11.12-.45h.28s.13-.26.13-.26c.43-.78.9-1.61,1.39-2.49,1.11-1.97,2.36-4.21,3.54-6.44l38.79-73.75c43.71-83.1,88.9-169.03,133.43-253.5,3.2-6.07,3.98-10.81,2.68-16.36-3.82-16.4-1.34-33.1,1.05-49.25l.18-1.23c1.68-11.35,3.79-22.43,6.01-34.15.97-5.13,1.96-10.3,2.91-15.54l.06-.34-.29-.18c-1.31-.79-2.64-1.57-3.98-2.35-2.87-1.67-5.83-3.4-8.59-5.32-3.7-2.58-7.4-5.16-11.11-7.73-13.83-9.6-28.12-19.52-41.75-29.85-5.2-3.94-10.16-9.72-14.73-17.16-3.54-5.76-4.62-11.39-3.14-16.3,1.54-5.1,5.82-9.4,12.39-12.43,12.16-5.62,25.39-6.68,37.89-6.99,2.86-.07,5.79-.11,8.97-.11,8.15,0,16.44.24,24.46.47,3.84.11,7.68.22,11.52.3,3.61.08,7.29.3,10.85.51,1.67.1,3.34.2,5.02.29l.41.02.1-.4c1.28-5.02,2.5-10.06,3.68-14.92,2.77-11.4,5.39-22.18,8.68-32.95,3.42-11.2,8.01-23.34,14.45-38.18,2.04-4.72,5.48-9.56,10.22-14.4,4.05-4.14,8.68-6.32,13.38-6.32s9.26,2.16,13.28,6.24c4.2,4.26,8.07,9.65,11.52,16,8.93,16.48,14.29,34.28,19.88,54.18,1.65,5.87,3.2,11.71,4.85,17.88.75,2.83,1.52,5.7,2.31,8.63l.11.4.41-.03c4.05-.31,8.09-.66,12-1,9-.79,17.49-1.53,26.16-1.75,4.52-.11,9.06-.17,13.52-.17,10.24,0,20.44.29,30.31.88,5.52.33,11.75,1.97,18.04,4.75,5.58,2.47,9.39,6.2,11.03,10.8,1.6,4.5,1.04,9.64-1.62,14.87-2.96,5.82-7.26,11.72-12.78,17.52-14.83,15.58-32.72,27.76-50.02,39.53-2.02,1.38-4.02,2.79-6.1,4.26-.98.7-3.35,2.36-3.35,2.36l.15.37c1.29,3.1,2.56,6.13,3.81,9.12,2.75,6.56,5.35,12.76,7.88,19.09,7.08,17.69,13.63,35.08,15.95,53.34.77,6.07.57,12.16-.58,17.62-1.91,9.02-7.67,13.79-16.66,13.79-.54,0-1.1-.02-1.66-.05-4.98-.31-10-1.8-14.84-3.25l-.54-.16c-2.52-.75-4.93-1.85-7.71-3.11-1.34-.61-2.76-1.26-4.3-1.92l-.82-.35.12.88c.16,1.16.29,2.21.4,3.2.22,1.94.42,3.61.83,5.24,17.92,70.5,35.87,140.98,53.82,211.47l10.5,41.25c.06.24.11.48.15.73.08.42.15.85.31,1.27l.9,2.42c3.8,10.26,4.82,13.01,10.1,13.01,1.54,0,3.48-.23,5.93-.53,1.27-.15,2.7-.32,4.31-.49,37.15-3.88,75.49-5.84,113.98-5.84,22.19,0,44.95.65,67.66,1.94,77.62,4.4,154.11,16.76,227.35,36.74,100.34,27.38,185.57,65.41,260.56,116.27,53.14,36.05,95.28,75.29,128.81,119.95,32.63,43.47,53.3,87.78,63.18,135.45.27,1.3.57,2.61.88,3.92.89,3.84,1.81,7.82,1.85,11.7.14,12.51,5.44,23.54,10.12,33.26,23.28,48.38,38.01,94.89,45.03,142.18,9.58,64.51,3.51,128.73-18.04,190.87-3.25,9.39-8.23,16.43-16.12,22.82-31.71,25.68-69.11,38.7-111.16,38.71-6.93,0-14.12-.35-21.37-1.04-.61-.06-1.26-.15-1.93-.28-8.75-1.66-15.41-2.4-21.59-2.4-9,0-17.03,1.65-24.53,5.04-4.96,2.24-11.09,2.54-16.43,2.54-1.01,0-2.01-.01-3-.03-14.4-.22-22.79-8.5-23.61-23.32-.11-1.95-.08-3.87-.05-6.1.01-1.08.03-2.21.03-3.42v-.46l-.46-.04c-1.14-.09-2.21-.16-3.24-.23-2.11-.14-4.09-.28-6.02-.52-1.07-.13-2.14-.25-3.22-.36-3.17-.33-6.45-.67-9.47-1.61-5.49-1.7-9.32-4.55-11.38-8.46-2.07-3.93-2.25-8.73-.53-14.26.72-2.31,1.83-4.55,2.9-6.73.66-1.34,1.35-2.73,1.94-4.14.56-1.31.97-2.63,1.54-4.47.3-.96.64-2.04,1.06-3.32l.3-.9-.91.27c-1.18.35-2.17.6-3.03.82-1.55.4-2.67.69-3.72,1.21-69.84,34.4-145.89,58.4-232.5,73.37-37.99,6.57-75.37,10.83-111.1,12.68-4.67.24-8.82.83-12.26,5.66-41.67,58.58-97.27,105.04-169.96,142.06-29.62,15.08-55.91,26.62-80.37,35.26-32.31,11.42-59.78,19.54-88.85,22.1-7.06.62-14.29.93-21.5.93Zm-59.54-85.36c3.71,0,5.55,1.11,6.33,3.83.39,1.36.32,2.48-.23,3.43-1.04,1.81-3.87,3.21-9.16,4.53-1.63.41-3.26.81-4.89,1.21-9.53,2.36-19.38,4.79-28.84,7.92-5.43,1.79-11.04,4.83-16.7,9.04-6.2,4.61-6.96,9.97-2.31,16.38,2.46,3.39,5.92,6.15,9.26,7.4,35.67,13.27,71.14,20,105.44,20,28.26,0,56.48-4.57,83.88-13.57,64.75-21.28,119.69-48.42,167.96-82.97,51.74-37.03,90.34-78.24,118.03-125.98,14.7-25.34,26.61-52.03,35.41-79.32.25-.76.46-1.55.68-2.35.57-2.1,1.16-4.26,2.36-5.86,1.24-1.65,3.93-3.05,5.87-3.05h.17c1.25.06,2.24.52,2.97,1.39.92,1.11,1.31,2.8,1.05,4.63-.45,3.2-1.49,6.39-2.5,9.48-9.54,29.31-21.91,56.81-36.8,81.82-1.04,1.75-1.98,3.49-3.18,5.7-.62,1.15-1.3,2.4-2.07,3.81l-.45.82.94-.08c2.38-.21,4.52-.42,6.51-.6,3.81-.36,7.09-.66,10.35-.91,66.18-5.04,130.96-16.61,192.55-34.38,65.17-18.8,121.56-42.86,172.4-73.55.74-.45,1.55-.88,2.34-1.3,2.26-1.21,4.59-2.45,6.02-4.39,5.04-6.86,12.29-10.81,19.3-14.63l2.04-1.11c14.27-7.85,26.06-16.09,36.05-25.17,8.92-8.12,17.86-16.52,26.5-24.64,3.59-3.38,7.18-6.75,10.79-10.12,1.08-1.01,2.14-2.03,3.4-3.25l1.54-1.49c2.34,9.15,2.15,16.01-5.42,21.63-3.04,2.26-5.77,5.02-8.41,7.68-1.31,1.32-2.66,2.68-4.03,3.97-2.38,2.23-4.79,4.44-7.67,7.07-1.39,1.28-5.5,5.05-5.5,5.05h1.28c1.44,0,2.55.03,3.46.05.64.02,1.18.03,1.66.03.76,0,1.31-.03,1.84-.11,5.59-.8,11.25-1.21,16.84-1.21,21.71,0,43.47,5.99,66.53,18.31,2.12,1.13,4.57,2.52,6.62,4.24,1.45,1.21,2.33,2.73,2.41,4.16.06,1.1-.34,2.11-1.2,3-1.1,1.14-3.44,1.99-5.46,1.99-.36,0-.69-.03-.99-.08-1.96-.34-3.86-1.5-5.71-2.62-.71-.43-1.43-.87-2.15-1.26-19.73-10.75-40.01-16.19-60.28-16.19-5.01,0-10.12.33-15.17.99-20.23,2.62-34.61,7.89-46.6,17.07-6.08,4.66-12.32,9.33-18.34,13.86-7.33,5.51-14.92,11.2-22.3,16.9-1.29,1-2.65,1.99-3.96,2.94-6.86,4.99-13.95,10.15-16.09,19.73-.27,1.2-1.12,2.28-2.02,3.43-.58.74-1.18,1.5-1.64,2.32-1.2,2.16-2.55,4.67-3.46,7.27-1.17,3.34-1.28,5.41-.39,6.9.8,1.33,2.43,2.15,5.11,2.55,4.24.64,8.56.97,12.85.97,3.01,0,6.01-.16,8.91-.48,1.3-.14,2.39-.21,3.35-.21,2.5,0,4.1.49,5.01,1.54,1.15,1.32,1.4,3.68.83,7.64l-.06.42c-.68,4.77-1.39,9.7-1.09,14.52.44,7.11,4.37,10.98,11.34,11.2,1.3.04,2.63.07,3.97.07,3.83,0,8.77-.24,12.94-2.08,8.82-3.89,17.97-5.78,27.97-5.78,6.71,0,13.74.85,21.48,2.6,1.51.34,3.08.48,4.59.61l.43.04c6.19.54,12.33.82,18.28.82,40.78,0,76.66-13.04,106.64-38.75,2.12-1.82,5.93-5.57,7.69-10.29,25-67.19,30.45-138.08,16.18-210.7-9.52-48.46-27.81-96.7-57.56-151.8-15.01-27.79-33.62-56.64-56.89-88.19-.4-.54-.81-1.08-1.23-1.61-1.61-2.09-3.28-4.25-3.98-6.6-.49-1.64.54-4.78,2.05-6.21.39-.38,1.33-.61,2.43-.61,1.22,0,2.46.28,3.14.72,2.34,1.5,4.2,3.97,5.86,6.41,9.69,14.26,19.49,28.79,28.97,42.85,4.7,6.97,9.4,13.94,14.11,20.91.89,1.31,1.83,2.59,3.14,4.36.75,1,1.61,2.17,2.65,3.59l1.14,1.56-.24-1.92c-.19-1.5-.3-2.68-.39-3.63-.15-1.6-.25-2.66-.57-3.64-1.09-3.4-2.15-6.82-3.21-10.23-2.64-8.54-5.37-17.38-8.71-25.82-16.87-42.54-42.84-81.94-79.39-120.43-46.23-48.69-102.36-89.44-171.62-124.6-117.3-59.54-246.05-93.58-393.6-104.05-24.92-1.77-50.33-2.67-75.52-2.67-33.74,0-68.16,1.61-102.33,4.78-5.76.54-11.45,1.18-17.46,1.86-2.82.32-5.68.65-8.61.97l-.54.06.1.53c.25,1.26.45,2.35.62,3.33.34,1.83.6,3.28.97,4.72,2.75,10.83,5.5,21.66,8.25,32.49,9.22,36.33,18.76,73.89,28.29,110.79,2.01,7.77,2.7,12.55.62,15.5-1.88,2.67-6.06,4.02-14.89,4.82-5.15.47-10.29.97-15.44,1.47-7.33.71-14.91,1.45-22.37,2.07-25.14,2.08-49.71,3.14-73.04,3.14-41.66,0-80.29-3.2-118.1-9.8-79.72-13.9-145.56-42.31-201.26-86.85-2.59-2.07-6.48-3.53-10.15-3.81-3.95-.3-7.9-.45-11.74-.45-14.96,0-29.32,2.29-42.69,6.82-17.81,6.03-32.7,15.42-45.53,28.69l-.24.25,1.79,3.72c1.14,2.36,2.21,4.58,3.29,6.8,8.24,16.81,13.65,34,16.1,51.1,5.89,41.2-.66,81.99-19.46,121.22-7.88,16.45-12.77,34.04-14.93,53.76-.15,1.39-.12,2.8-.08,4.43.02.84.04,1.74.04,2.74v.77l.71-.32c.95-.43,1.74-.78,2.45-1.09,1.27-.57,2.23-.99,3.18-1.45,14.67-7.04,29.6-10.61,44.37-10.61,4.53,0,9.12.34,13.64,1,12.16,1.78,26.4,4.2,39.85,8.62,33.28,10.92,65.61,22.28,96.08,33.75,23.63,8.9,43.31,19.04,60.16,31.02,8.3,5.9,16.63,13.13,26.99,23.43,5.81,5.77,9.55,13.67,10.84,22.84.65,4.65-.81,7.35-4.34,8.04-.49.1-.97.14-1.41.14-2.87,0-4.66-2.01-5.32-5.98-1.6-9.66-6.76-17.94-16.23-26.07-6.64-5.7-13.79-11.63-21.7-16.1-14.53-8.21-30.18-16.77-46.2-23.77-39.74-17.37-81.39-31.5-123.8-41.99-9.2-2.28-18.27-3.43-26.95-3.43-16.45,0-32.26,4.15-46.98,12.34-5.31,2.95-7.25,6.24-7.15,12.14.41,25.17,4.83,49.94,13.12,73.63,15.15,43.27,37.5,80.93,66.46,111.94,6.38,6.84,12.78,13.88,18.97,20.7,14.52,15.99,29.54,32.53,45.47,47.58,38.14,36.04,84.99,68.08,143.23,97.97,72.51,37.21,150.4,64.36,238.11,82.99,12.22,2.6,24.73,4.92,36.83,7.17,5.69,1.06,11.38,2.12,17.08,3.21l.31.06.19-.26c.79-1.09,1.55-2.1,2.28-3.06,1.45-1.92,2.82-3.73,3.96-5.63,2.83-4.71,5.79-9.46,8.65-14.05,7.03-11.29,14.3-22.95,20.27-35.03,9-18.21,17.3-37.14,25.32-55.45,3.28-7.49,6.68-15.23,10.07-22.81,2.22-4.95,4.28-7.16,6.69-7.16.55,0,1.12.11,1.75.34,3.57,1.3,4.29,4.54,2.33,10.53-.05.17-.13.33-.2.49-.06.14-.12.27-.17.41-24.32,63.56-52.7,115.53-86.76,158.87-27.94,35.55-58.13,63.72-92.31,86.12-3.38,2.22-6.95,4.38-10.13,4.38-.1,0-.2,0-.29,0-2.7-.12-5.45-.18-8.18-.18-19.63,0-40.53,3.11-63.87,9.5-5.25,1.44-10.28,4.23-14.51,6.78-4.61,2.77-5.58,6.83-2.81,11.73l.18.31.35-.07c1.12-.22,2.19-.43,3.22-.64,2.09-.42,4.06-.82,6.02-1.14,2.06-.33,3.75-.5,5.15-.5Zm-347.8-418.47c-9.99,16.22-18.33,32.8-25.52,50.68-19.09,47.53-24.12,92.08-15.37,136.2,7.66,38.64,25.55,75.36,54.67,112.23.79,1.01,1.58,2.02,2.37,3.04,2.64,3.42,5.38,6.96,8.46,10.07,3.45,3.47,6.57,5.16,9.54,5.16,3.29,0,6.39-2.08,9.48-6.34,3.58-4.96,6.29-10.64,8.91-16.13l.24-.51c2.62-5.49,4.16-7.79,6.87-7.79,1.85,0,4.3,1.02,7.66,2.66.72.35,1.43.73,2.14,1.12,1.33.72,2.72,1.46,4.16,2,1.81.68,3.62,1.38,5.43,2.09,5.25,2.05,10.68,4.18,16.22,5.54,1.93.48,3.7.72,5.27.72,2.96,0,5.3-.85,6.96-2.54,2.1-2.12,3.13-5.59,3.07-10.31-.05-4.25-.78-8.54-1.48-12.7-.29-1.71-.58-3.42-.82-5.13-.18-1.26-.43-2.53-.67-3.76-.45-2.28-.91-4.64-.92-6.94,0-3.28.57-5.45,1.77-6.65.87-.87,2.12-1.29,3.82-1.29,1.08,0,2.32.17,3.81.5,3.23.74,6.51,1.56,9.67,2.36,4.77,1.2,9.7,2.44,14.61,3.42,2.96.59,5.99.72,9.51.88,1.77.08,3.59.16,5.62.3l.95.07-.48-.82c-.78-1.32-1.4-2.5-1.95-3.54-1.03-1.94-1.84-3.48-3.01-4.67-.95-.96-1.9-1.93-2.84-2.9-5.26-5.37-10.7-10.93-16.6-15.73-6.22-5.05-12.88-9.76-19.32-14.31-2.7-1.91-5.4-3.81-8.08-5.75-20.23-14.64-28.95-33.92-25.93-57.32,1.33-10.34,4.46-20.34,7.35-28.76,1.9-5.53,4.49-10.81,7.24-16.4,1.24-2.53,2.53-5.15,3.79-7.86l.16-.35-.3-.25c-21.96-17.76-40.81-39.38-59.04-60.28-11.65-13.36-23.7-27.18-36.63-40.11l-.45-.45-.33.54Zm-47.28-319.49c3.33,9.42,9.63,17.13,15.27,23.62l.17.19,3.15-.24,4.12-21.44-22.97-2.88.27.76Zm13.62-87.85c-7.58,9.24-12.99,18.9-17.03,30.42-.42,1.21-.59,3.03.05,4.19,7.53,13.72,16.35,24.09,27.74,32.66l.76.57.04-.95c.92-23.44-2.48-44.65-10.71-66.75l-.3-.81-.55.67Zm158.4-156.81l.19.25c1.08,1.44,2.13,2.87,3.16,4.27,2.22,3.03,4.33,5.9,6.62,8.68,14.88,18.04,33.83,34,57.96,48.77,27.91,17.09,59.22,30.93,98.51,43.54,54.23,17.42,113.29,29.59,191.47,39.48,4.57.58,9.17.99,14.05,1.42,2.37.21,4.82.43,7.38.67l.71.07-30.4-119.31-.35-.04c-2.04-.21-3.98-.42-5.85-.62-3.79-.41-7.36-.8-10.91-1.08-47.75-3.7-90.69-11.48-131.29-23.79-60.76-18.43-110.36-45.73-151.63-83.46-.76-.7-1.61-1.26-2.68-1.97-.56-.37-1.19-.79-1.89-1.29l-.46-.33-44.58,84.72Zm90.4-171.85l.35.25c66.09,47.68,131.98,70.86,201.42,70.86,7.88,0,15.93-.3,23.93-.9l.59-.04-26.18-103.01-.45.07c-11.69,1.72-23.38,2.59-34.73,2.59-44.46,0-87.3-13.49-127.34-40.11l-.46-.31-37.13,70.6Zm41-290.32c-4.14.22-8.28.43-12.42.63-10.31.51-20.98,1.03-31.45,1.85-4.72.37-9.84,1.55-15.63,3.6-5.31,1.88-8.01,3.88-8.78,6.48-.74,2.52.41,5.63,3.63,9.78,5.7,7.37,10.84,12.57,16.16,16.38,11.68,8.36,23.82,16.46,35.57,24.31,5.68,3.79,11.55,7.71,17.29,11.61.62.42,1.31.84,2.01,1.27,2.22,1.36,4.74,2.89,5.14,4.63.34,1.45.74,2.91,1.14,4.31,1.29,4.59,2.62,9.33,1.58,14.7-3.79,19.43-7.03,39.75-9.9,62.13-1.12,8.75-.08,17.88.8,23.99,1.07,7.4,3.56,10.84,7.85,10.84,2.33,0,5.19-1.05,8.75-3.22,8.34-5.08,14.81-10.09,19.77-15.31,13.85-14.58,27.28-30.01,40.27-44.93l.4-.47c4.04-4.64,6.21-6.82,8.65-6.82,2.08,0,4.58,1.64,8.47,4.65,3.5,2.71,7,5.56,10.38,8.32,6.28,5.12,12.78,10.42,19.57,15.07,11.11,7.61,23.54,15.25,39.1,24.06,3.43,1.94,7.42,4.01,11.41,4.01,2.26,0,4.3-.69,6.07-2.06,5.1-3.94,4.05-10.29,3.12-15.9-.08-.48-.16-.95-.23-1.42-4.02-25.41-14.39-49.04-24.42-71.91l-1.55-3.54c-.39-.88-.96-1.66-1.52-2.42l-.14-.19c-2.65-3.59-3.95-5.73-3.66-7.46.29-1.73,2.19-3.31,5.83-5.79,2.23-1.52,4.55-3.01,6.8-4.45,3.55-2.28,7.23-4.64,10.67-7.21l1.86-1.39c11.48-8.55,23.34-17.4,34.53-26.69,5.07-4.21,10.04-9.71,14.77-16.33,3.07-4.3,4.09-7.54,3.2-10.19-.88-2.63-3.63-4.6-8.65-6.17-4.42-1.39-9.39-2.32-14.79-2.76-6.44-.53-12.99-.79-20.02-.79-17.41,0-34.75,1.64-50.88,3.41-1.84.2-3.41.3-4.79.3-7.58,0-10.73-2.86-13.51-12.26-.76-2.57-1.37-5.25-1.96-7.84-.72-3.17-1.47-6.45-2.51-9.58-.91-2.77-1.82-5.53-2.73-8.3-4.82-14.69-9.8-29.89-15.47-44.54l-.63-1.64c-3.08-8.09-6.92-18.16-16.25-18.18-9.07,0-12.42,8.66-15.38,16.3-.59,1.52-1.15,2.95-1.74,4.31-3.69,8.45-7.04,18.04-10.56,30.19-2.4,8.3-4.48,16.84-6.49,25.1-1.09,4.47-2.21,9.09-3.38,13.62-3.49,13.58-6.34,16.33-16.95,16.33-1.26,0-2.68-.04-4.34-.13-5.47-.29-10.95-.61-16.42-.92l-7.09-.41-.05-.98-.5.03Zm58.06,178.76l.52.3c23.02,13.37,47.25,16.11,76.54,16.11,2.37,0,4.74-.02,7.13-.04h.62s-.13-.61-.13-.61c-.34-1.51-.67-2.79-.96-3.94-.54-2.1-.96-3.77-1.08-5.4-.68-9.14-6.4-14.06-11.91-17.65-6.14-4.01-12.04-8.64-17.75-13.12-2.04-1.6-4.09-3.21-6.15-4.79-2.83-2.17-5.57-4.39-8.47-6.75-1.31-1.06-2.65-2.15-4.01-3.24l-.38-.3-33.96,39.44Z"
        />
      </g>
      <g>
        <path
          stroke="currentColor"
          stroke-linecap="round"
          stroke-linejoin="round"
          stroke-width="2"
          d="m349.63,946.56c-19.95,0-38.08-7.9-53.88-23.48-15.44-15.22-25.1-34.18-31.79-48.99-.9-1.99-1.81-3.98-2.92-6.42l-2.17-4.76-.51.5c-1.63,1.6-3.15,3.1-4.59,4.52-3.09,3.06-5.75,5.71-8.58,8.26-2.16,1.95-4.23,2.98-5.99,2.98-1.41,0-2.64-.66-3.65-1.95-2.25-2.89-1.75-5.59,1.7-9.01,24.79-24.67,52.53-49.66,87.31-65.39,14.42-6.52,28.18-9.69,42.08-9.69,1.06,0,2.12.02,3.19.06,18.34.65,34.38,7.54,49.04,21.06,10.56,9.74,19.51,21.76,26.59,35.73,4.59,9.04,5.89,18.4,3.87,27.81-3,14.02-8.27,29.72-24.56,39.9-16.28,10.17-33.11,20.68-52.47,25.77-7.81,2.05-15.44,3.1-22.69,3.1Zm17.26-142.11c-5.29,0-10.82.64-16.43,1.91-31.72,7.15-55.85,25.87-81.89,47.78l-.27.23.13.33c7.03,18.49,16.38,39.76,32.41,57.24,14.13,15.41,30.6,23.23,48.95,23.23h0c6.16,0,12.65-.88,19.29-2.62,18.56-4.86,34.8-15.12,49.13-24.16,9.65-6.09,15.56-14.85,19.17-28.4,2.46-9.25,1.8-17.57-1.96-24.73-7.46-14.18-15.95-25.34-25.96-34.13-12.6-11.06-26.92-16.67-42.58-16.67Z"
        />
        <path
          stroke="currentColor"
          stroke-linecap="round"
          stroke-linejoin="round"
          stroke-width="2"
          d="m366.65,793.64c1.05,0,2.12.02,3.18.06,18.22.65,34.16,7.5,48.72,20.93,10.51,9.7,19.43,21.67,26.49,35.59,4.53,8.94,5.82,18.18,3.83,27.48-2.98,13.92-8.2,29.5-24.34,39.58-16.24,10.15-33.04,20.64-52.33,25.71-7.77,2.04-15.36,3.08-22.57,3.08-19.81,0-37.82-7.85-53.53-23.34-15.38-15.16-25.01-34.07-31.69-48.84-.89-1.97-1.79-3.94-2.89-6.35l-1.91-4.18-.59-1.29-1.02.99c-1.64,1.6-3.15,3.1-4.59,4.53-3.08,3.06-5.74,5.7-8.56,8.24-2.07,1.87-4.03,2.86-5.66,2.86-1.25,0-2.34-.59-3.25-1.75-2.09-2.68-1.61-5.1,1.65-8.35,24.76-24.63,52.46-49.59,87.16-65.28,14.35-6.49,28.05-9.65,41.88-9.65m-16.86,142.03c6.21,0,12.74-.89,19.42-2.64,18.64-4.88,34.91-15.16,49.27-24.22,9.63-6.08,15.79-15.2,19.39-28.7,2.5-9.38,1.82-17.82-2-25.09-7.49-14.24-16.02-25.45-26.07-34.27-12.69-11.14-27.13-16.8-42.9-16.8-5.32,0-10.89.65-16.54,1.92-31.83,7.18-56.01,25.93-82.1,47.88l-.54.46.25.66c7.05,18.54,16.43,39.86,32.51,57.4,14.23,15.52,30.82,23.39,49.32,23.39m16.86-143.03c-14.8,0-28.84,3.65-42.29,9.73-33.97,15.36-61.38,39.55-87.46,65.49-2.74,2.72-4.68,5.9-1.74,9.67,1.11,1.42,2.48,2.14,4.04,2.14,1.87,0,4.02-1.03,6.33-3.11,4.17-3.76,8.07-7.82,13.18-12.8,2.07,4.53,3.44,7.53,4.8,10.53,8.14,18,17.68,35.12,31.9,49.14,15.96,15.74,34.03,23.63,54.23,23.63,7.33,0,14.93-1.04,22.82-3.11,19.31-5.08,35.88-15.38,52.6-25.83,15.3-9.56,21.29-23.91,24.78-40.22,2.1-9.82.55-19.34-3.91-28.14-6.82-13.45-15.56-25.6-26.7-35.88-13.95-12.86-30.16-20.51-49.36-21.19-1.08-.04-2.14-.06-3.21-.06h0Zm-16.86,142.03c-18.56,0-34.69-7.9-48.59-23.07-14.86-16.21-24.15-35.63-32.31-57.08,24.95-20.99,49.72-40.46,81.67-47.67,5.59-1.26,11.03-1.9,16.32-1.9,15.44,0,29.58,5.42,42.25,16.55,10.91,9.58,19.14,21.24,25.84,33.98,4.07,7.74,4.09,16.23,1.92,24.37-3.03,11.4-8.18,21.31-18.95,28.11-15.53,9.81-30.98,19.38-48.99,24.1-6.66,1.74-13.04,2.6-19.17,2.6h0Z"
        />
      </g>
      <g>
        <path
          stroke="currentColor"
          stroke-linecap="round"
          stroke-linejoin="round"
          stroke-width="2"
          d="m157.85,905.45c-8.6,0-15.83-2.83-21.48-8.41-2.05-2.02-3.64-4.76-4.26-7.32-.37-1.54.76-4.46,2.05-5.3.46-.3,1.15-.46,2.03-.46,1.28,0,2.75.32,4.03.61.54.13,1.08.81,1.59,1.48.3.39.62.8.96,1.13,4.68,4.56,10.17,6.98,15.88,6.98,6.33,0,12.39-3.06,17.06-8.63,1.51-1.8,2.75-3.85,3.95-5.83.52-.85,1.03-1.7,1.57-2.54,1.56-2.41,3.33-3.64,5.28-3.64.8,0,1.64.21,2.51.62,3.8,1.8,3.25,5.29,2.13,7.91-6.01,13.99-18.79,23.39-31.8,23.39-.21,0-.41,0-.62,0-.31,0-.59,0-.88,0Z"
        />
        <path
          stroke="currentColor"
          stroke-linecap="round"
          stroke-linejoin="round"
          stroke-width="2"
          d="m186.51,874.03h0c.72,0,1.49.19,2.29.57,2.76,1.3,3.39,3.75,1.88,7.26-5.93,13.81-18.53,23.08-31.34,23.08-.2,0-.4,0-.65,0-.28,0-.56,0-.84,0-8.47,0-15.58-2.78-21.13-8.26-1.98-1.96-3.53-4.61-4.13-7.08-.33-1.35.7-4.02,1.84-4.76.38-.25.97-.38,1.75-.38,1.22,0,2.66.31,3.92.6.37.09.89.76,1.31,1.3.31.4.64.82,1.01,1.18,4.78,4.66,10.39,7.12,16.22,7.12,6.48,0,12.68-3.13,17.45-8.81,1.53-1.83,2.79-3.89,4-5.89.51-.84,1.03-1.7,1.56-2.53,1.46-2.26,3.09-3.41,4.86-3.41m0-1c-2.32,0-4.22,1.56-5.7,3.87-1.8,2.79-3.36,5.79-5.48,8.31-4.72,5.62-10.66,8.45-16.68,8.45-5.39,0-10.85-2.27-15.53-6.84-.95-.92-1.71-2.49-2.79-2.74-1.27-.29-2.8-.63-4.14-.63-.89,0-1.69.14-2.3.54-1.48.96-2.69,4.08-2.26,5.83.66,2.74,2.37,5.56,4.4,7.56,6.01,5.94,13.47,8.55,21.83,8.55.29,0,.58,0,.86,0,.21,0,.42,0,.63,0,13.1,0,26.07-9.29,32.26-23.69,1.45-3.36,1.39-6.78-2.37-8.56-.97-.46-1.87-.67-2.72-.67h0Z"
        />
      </g>
      <g>
        <path
          stroke="currentColor"
          stroke-linecap="round"
          stroke-linejoin="round"
          stroke-width="2"
          d="m83.64,899.39c-2.14-.54-4.27-.99-6.33-1.43-4.62-.99-8.99-1.92-13.04-3.64-9.7-4.11-14.83-14.87-11.96-25.02,1-3.52,2.79-5.23,5.5-5.23.32,0,.66.02,1.01.07,2.96.41,4.42,2.43,4.34,6,0,.4-.02.8-.03,1.21-.13,4.37-.27,8.89,4.28,11.79,3.86,2.45,8.36,3.64,13.76,3.64,2.02,0,4.24-.16,6.8-.5.72-.09,1.37-.47,1.99-.83.28-.16.56-.33.85-.46,1.33-.62,2.55-.94,3.61-.94,1.88,0,3.25.97,4.19,2.95,1.51,3.18.54,6.59-2.31,8.11-2.69,1.43-5.64,2.26-8.77,3.13-1.27.36-2.59.72-3.87,1.13Z"
        />
        <path
          stroke="currentColor"
          stroke-linecap="round"
          stroke-linejoin="round"
          stroke-width="2"
          d="m57.81,864.58c.3,0,.62.02.94.07,2.7.37,3.98,2.17,3.91,5.5,0,.4-.02.8-.03,1.2-.13,4.3-.28,9.18,4.51,12.22,3.94,2.5,8.53,3.72,14.02,3.72,2.04,0,4.28-.16,6.87-.5.82-.11,1.54-.52,2.17-.89.28-.16.55-.32.81-.44,1.27-.59,2.41-.89,3.4-.89,1.67,0,2.89.87,3.74,2.67,1.39,2.93.51,6.07-2.09,7.46-2.64,1.41-5.57,2.23-8.68,3.09-1.23.34-2.5.7-3.75,1.09-2.1-.52-4.19-.97-6.21-1.4-4.6-.98-8.94-1.91-12.95-3.61-9.46-4.01-14.48-14.51-11.67-24.42,1.24-4.36,3.46-4.86,5.02-4.86m0-1c-3.33,0-5.07,2.37-5.98,5.59-2.88,10.17,1.96,21.26,12.24,25.62,5.99,2.54,12.69,3.39,19.59,5.13,4.36-1.4,8.94-2.25,12.86-4.34,3.07-1.64,4.15-5.35,2.53-8.77-1.09-2.31-2.74-3.24-4.64-3.24-1.19,0-2.49.36-3.82.98-.9.42-1.75,1.13-2.69,1.25-2.26.29-4.51.49-6.74.49-4.69,0-9.26-.88-13.49-3.56-4.72-3-4.12-7.89-4.02-12.56.07-3.33-1.18-6.01-4.77-6.51-.38-.05-.74-.08-1.08-.08h0Z"
        />
      </g>
      <g>
        <path
          stroke="currentColor"
          stroke-linecap="round"
          stroke-linejoin="round"
          stroke-width="2"
          d="m157.64,889.22c-5.71,0-10.44-4.25-10.76-9.68-.13-2.25.75-4.53,2.5-6.41,2.22-2.39,5.59-3.85,9-3.9h.17c5.44,0,9.92,3.98,10.2,9.06.14,2.62-.84,5.2-2.77,7.27-2.1,2.26-5.05,3.6-8.1,3.66h-.24Z"
        />
        <path
          stroke="currentColor"
          stroke-linecap="round"
          stroke-linejoin="round"
          stroke-width="2"
          d="m158.55,869.72c5.09,0,9.44,3.85,9.7,8.59.13,2.48-.8,4.93-2.63,6.91-2.01,2.16-4.83,3.44-7.75,3.5h-.23c-5.45,0-9.95-4.05-10.26-9.21-.12-2.12.71-4.26,2.36-6.04,2.13-2.29,5.36-3.69,8.65-3.74h.16m0-1c-.06,0-.12,0-.18,0-6.69.1-12.33,5.19-11.99,10.84.34,5.71,5.29,10.16,11.26,10.16.08,0,.17,0,.25,0,6.37-.13,11.68-5.49,11.36-11.46-.29-5.31-5.04-9.53-10.7-9.53h0Z"
        />
      </g>
      <g>
        <path
          stroke="currentColor"
          stroke-linecap="round"
          stroke-linejoin="round"
          stroke-width="2"
          d="m84.32,879.18c-5,0-8.73-3.97-8.87-9.44-.07-2.88.78-5.32,2.47-7.06,1.65-1.69,3.97-2.58,6.71-2.59,5.38,0,9.3,3.58,9.34,8.51.04,5.28-4.16,10.21-8.98,10.55-.22.02-.45.02-.67.02Z"
        />
        <path
          stroke="currentColor"
          stroke-linecap="round"
          stroke-linejoin="round"
          stroke-width="2"
          d="m84.64,859.6v1c5.08,0,8.79,3.37,8.83,8.01.04,5.03-3.94,9.72-8.51,10.05-.21.02-.43.02-.63.02-4.72,0-8.24-3.76-8.37-8.95-.07-2.74.73-5.06,2.33-6.7,1.55-1.59,3.75-2.43,6.36-2.44v-1m0,0h-.01c-5.96,0-9.84,4.08-9.68,10.16.15,5.74,4.17,9.93,9.37,9.93.23,0,.47,0,.71-.03,5.11-.37,9.48-5.48,9.44-11.06-.04-5.19-4.2-9-9.83-9h0Z"
        />
      </g>
      <g>
        <path
          stroke="currentColor"
          stroke-linecap="round"
          stroke-linejoin="round"
          stroke-width="2"
          d="m840.29,743.78c-3.65,0-7.41-.89-11.19-2.64-3.46-1.6-6.53-3.49-9.14-5.61-.58-.47-.73-1.7-.87-2.89-.05-.41-.1-.84-.17-1.25.3-.05.61-.12.92-.18.71-.15,1.37-.29,1.99-.29.31,0,.57.04.81.11,1.13.34,2.17,1.02,3.26,1.74.58.38,1.19.78,1.81,1.12,5.58,3.06,9,4.26,12.22,4.26h0c4.43,0,8.4-2.52,13.37-6.59.82-.67,1.7-1.27,2.72-1.97.43-.3.89-.61,1.37-.95,1.3,1.08,1.97,2.08,2.06,3.06.12,1.33-.83,2.53-2.08,3.95-4.69,5.32-10.59,8.13-17.07,8.13h0Z"
        />
        <path
          stroke="currentColor"
          stroke-linecap="round"
          stroke-linejoin="round"
          stroke-width="2"
          d="m857.36,729.28c.99.88,1.53,1.71,1.6,2.47.1,1.13-.79,2.24-1.96,3.58-4.59,5.21-10.36,7.96-16.69,7.96-3.57,0-7.27-.87-10.98-2.59-3.42-1.58-6.46-3.45-9.04-5.54-.42-.34-.57-1.57-.69-2.56-.03-.26-.06-.52-.1-.79.15-.03.3-.06.46-.09.68-.14,1.32-.28,1.89-.28.26,0,.48.03.67.09,1.06.32,2.07.98,3.13,1.68.59.39,1.2.79,1.84,1.14,4.72,2.59,8.64,4.32,12.46,4.32,4.58,0,8.63-2.56,13.68-6.7.8-.65,1.67-1.25,2.68-1.94.34-.23.69-.48,1.07-.73m.05-1.26c-1.79,1.27-3.18,2.13-4.43,3.16-5.34,4.38-9,6.47-13.05,6.47-3.34,0-6.95-1.43-11.98-4.19-1.74-.95-3.32-2.34-5.16-2.9-.3-.09-.62-.13-.96-.13-1.11,0-2.35.41-3.5.55.4,1.69.25,4.07,1.32,4.94,2.79,2.26,5.98,4.16,9.25,5.68,3.89,1.8,7.72,2.68,11.4,2.68,6.59,0,12.63-2.84,17.44-8.3,2.05-2.33,3.89-4.65-.33-7.97h0Z"
        />
      </g>
      <g>
        <path
          stroke="currentColor"
          stroke-linecap="round"
          stroke-linejoin="round"
          stroke-width="2"
          d="m696.19,742.65c-6.17,0-11.13-3.26-16.49-10.88.78-.18,1.45-.38,2.07-.56.94-.27,1.69-.49,2.24-.49.2,0,.37.03.51.09,1.18.48,2.23,1.26,3.34,2.1.77.58,1.57,1.18,2.42,1.67,2.43,1.4,4.16,2.02,5.61,2.02,2.7,0,4.37-2.2,6.04-5.49.78-1.54,1.58-3.08,2.39-4.62l.9-1.73c1.62.47,2.64,1.13,3.12,2.01.64,1.18.25,2.77-.26,4.32-1.98,5.95-4.12,10.92-10.23,11.49-.56.05-1.11.08-1.65.08Z"
        />
        <path
          stroke="currentColor"
          stroke-linecap="round"
          stroke-linejoin="round"
          stroke-width="2"
          d="m705.47,725.35c1.25.42,2.06.97,2.43,1.64.55,1.01.18,2.48-.3,3.92-1.93,5.78-4,10.61-9.8,11.16-.54.05-1.08.08-1.61.08-5.83,0-10.56-3.03-15.66-10.07.51-.13.97-.27,1.37-.38.91-.26,1.62-.47,2.1-.47.13,0,.24.02.32.05,1.12.45,2.14,1.22,3.22,2.03.78.59,1.59,1.2,2.47,1.7,2.51,1.45,4.32,2.09,5.86,2.09,2.95,0,4.73-2.31,6.49-5.77.78-1.53,1.57-3.06,2.37-4.59.24-.46.48-.92.72-1.39m-.51-1.19c-1.16,2.25-2.34,4.47-3.48,6.71-1.81,3.56-3.36,5.22-5.59,5.22-1.43,0-3.13-.67-5.36-1.96-2.01-1.16-3.71-2.95-5.82-3.8-.21-.09-.44-.12-.7-.12-1.11,0-2.69.71-5.15,1.22,5,7.3,10.2,11.71,17.32,11.71.55,0,1.12-.03,1.7-.08,6.62-.62,8.82-6.31,10.66-11.83,1.03-3.09,1.35-5.79-3.59-7.07h0Z"
        />
      </g>
      <g>
        <path
          stroke="currentColor"
          stroke-linecap="round"
          stroke-linejoin="round"
          stroke-width="2"
          d="m772.91,651.42c-5.25,0-10.24-1.96-14.13-5.53,1.84-1.16,3.76-1.7,5.97-1.7,1.76,0,3.52.35,5.21.68,1.64.33,3.33.66,4.98.66h.21c2.5-.05,4.56-1.38,6.56-2.67,2.01-1.3,3.91-2.53,6.21-2.53.63,0,1.26.09,1.91.28-2.62,6.59-9.2,10.81-16.91,10.81Z"
        />
        <path
          stroke="currentColor"
          stroke-linecap="round"
          stroke-linejoin="round"
          stroke-width="2"
          d="m787.91,639.82v1c.41,0,.81.04,1.22.13-2.68,6.09-8.93,9.97-16.22,9.97-4.89,0-9.56-1.75-13.28-4.95,1.58-.87,3.24-1.28,5.12-1.28,1.72,0,3.44.34,5.11.67,1.66.33,3.38.67,5.08.67h.22c2.64-.05,4.76-1.42,6.82-2.75,1.95-1.26,3.79-2.45,5.94-2.45v-1m0,0c-4.83,0-8.02,5.12-12.77,5.21-.07,0-.14,0-.2,0-3.27,0-6.63-1.35-10.19-1.35-2.18,0-4.43.5-6.77,2.13,4.26,4.15,9.69,6.1,14.93,6.1,7.61,0,14.84-4.12,17.56-11.62-.91-.33-1.76-.47-2.56-.47h0Z"
        />
      </g>
      <g>
        <path
          stroke="currentColor"
          stroke-linecap="round"
          stroke-linejoin="round"
          stroke-width="2"
          d="m639.13,675.19c-.91,0-1.9-.04-2.95-.12-.29-.09-.8-.2-1.41-.33-1.94-.43-4.86-1.08-7.56-2.24-.91-.39-1.58-1.65-2.23-2.86-.22-.4-.44-.82-.67-1.21.33-.12.65-.25.98-.38,1.13-.45,2.21-.88,3.25-.88,1.48.02,2.96.55,4.39,1.07.41.15.81.29,1.22.43,2.06.69,3.71,1,5.21,1,3.11,0,5.56-1.45,7.49-4.44.34-.53,1.65-.69,2.8-.83.42-.05.85-.1,1.26-.17.04.41.1.83.17,1.24.19,1.27.37,2.47-.03,3.35-2.02,4.48-5.58,6.39-11.9,6.39Z"
        />
        <path
          stroke="currentColor"
          stroke-linecap="round"
          stroke-linejoin="round"
          stroke-width="2"
          d="m650.47,664.78c.03.25.07.5.11.74.17,1.14.34,2.33,0,3.07-1.93,4.27-5.35,6.09-11.45,6.09-.87,0-1.82-.04-2.83-.11-.37-.1-.86-.2-1.42-.33-1.92-.43-4.82-1.07-7.47-2.21-.75-.32-1.37-1.5-1.98-2.64-.13-.24-.26-.48-.39-.72.15-.06.29-.12.44-.17,1.09-.44,2.12-.85,3.07-.85h.05c1.33.02,2.71.52,4.17,1.04.41.15.82.29,1.23.43,2.11.7,3.82,1.03,5.37,1.03,3.29,0,5.88-1.53,7.91-4.67.22-.33,1.61-.5,2.44-.61.25-.03.51-.06.76-.1m.89-1.18c-1.69.41-4.25.27-4.93,1.34-2.01,3.11-4.39,4.21-7.07,4.21-1.59,0-3.28-.39-5.05-.98-1.87-.62-3.79-1.49-5.7-1.52-.02,0-.04,0-.07,0-1.66,0-3.33.97-4.99,1.5,1.13,1.66,1.91,4.13,3.46,4.8,3.58,1.53,7.53,2.19,9.12,2.61,1.05.08,2.05.12,2.99.12,6.28,0,10.19-1.89,12.36-6.68.67-1.48-.05-3.58-.13-5.4h0Z"
        />
      </g>
      <g>
        <path
          stroke="currentColor"
          stroke-linecap="round"
          stroke-linejoin="round"
          stroke-width="2"
          d="m915.73,673.09c-.19,0-.42-.01-.67-.03-.38-.02-.82-.05-1.36-.05-7.97-.34-13.5-2.73-17.37-7.53-.48-.6-.38-1.84-.28-3.05.03-.43.07-.87.08-1.29.06,0,.12,0,.17,0,.28,0,.56,0,.85-.02.28,0,.55-.02.82-.02.6,0,1.33.04,1.68.36,5.01,4.61,11.03,5.52,16.79,5.81h.25c1.64.09,3.51.19,4.32,1.18.4.49.52,1.18.38,2.12-.09.59-2.05,1.3-3.35,1.76-.63.23-1.25.45-1.78.68-.12.05-.28.08-.52.08Z"
        />
        <path
          stroke="currentColor"
          stroke-linecap="round"
          stroke-linejoin="round"
          stroke-width="2"
          d="m897.96,661.61c.9,0,1.23.12,1.34.23,5.13,4.72,11.25,5.64,17.1,5.95h.26c1.46.09,3.29.18,3.95.99.3.37.39.92.28,1.68-.29.43-2.07,1.07-3.03,1.42-.62.22-1.26.46-1.81.69-.03.01-.11.03-.32.03-.19,0-.4-.01-.64-.03-.37-.02-.82-.05-1.33-.05,0,0-.02,0-.02,0-7.84-.33-13.25-2.67-17.03-7.35-.36-.44-.26-1.69-.17-2.69.02-.28.04-.56.06-.84.19,0,.37,0,.56-.02.27,0,.54-.02.8-.02m0-1c-.54,0-1.12.04-1.67.04-.23,0-.46,0-.68-.03.07,1.76-.57,4.08.32,5.18,4.71,5.84,11.4,7.45,17.76,7.72.91,0,1.55.08,2.03.08.29,0,.52-.03.72-.12,1.93-.84,5.23-1.62,5.42-2.83.57-3.69-2.83-3.73-5.42-3.87-6.06-.31-11.75-1.34-16.48-5.68-.45-.41-1.19-.49-2.02-.49h0Z"
        />
      </g>
      <g>
        <path
          stroke="currentColor"
          stroke-linecap="round"
          stroke-linejoin="round"
          stroke-width="2"
          d="m1030.84,734.51c-3.27,0-6.59-1.27-9.87-3.76-.21-.16-.43-.33-.66-.49-1.46-1.07-2.96-2.18-3.17-3.82-.16-1.2.38-2.6,1.64-4.27,4.5,3.97,8.65,5.9,12.66,5.9,2.88,0,5.76-1.01,8.58-3.01.99,1.41,1.38,2.61,1.19,3.66-.25,1.41-1.52,2.48-3.35,3.65-2.21,1.42-4.58,2.13-7.02,2.13Z"
        />
        <path
          stroke="currentColor"
          stroke-linecap="round"
          stroke-linejoin="round"
          stroke-width="2"
          d="m1018.86,722.91c4.44,3.81,8.56,5.66,12.57,5.66,2.84,0,5.68-.94,8.45-2.81.7,1.11.97,2.07.83,2.87-.22,1.23-1.41,2.22-3.13,3.32-2.13,1.36-4.4,2.06-6.75,2.06-3.16,0-6.38-1.23-9.57-3.66-.22-.16-.44-.33-.66-.49-1.37-1.01-2.79-2.05-2.97-3.48-.12-.95.29-2.11,1.23-3.47m-.15-1.46c-4.54,5.63-.71,7.67,1.95,9.7,3.4,2.58,6.85,3.86,10.17,3.86,2.53,0,4.99-.74,7.29-2.21,2.89-1.85,5.38-3.98,2.01-8.43-3,2.23-5.89,3.21-8.7,3.21-4.39,0-8.59-2.39-12.72-6.13h0Z"
        />
      </g>
      <g>
        <path
          stroke="currentColor"
          stroke-linecap="round"
          stroke-linejoin="round"
          stroke-width="2"
          d="m346.43,911.2c-12.88,0-23.12-4.89-30.45-14.53-2.98-3.92-5.05-8.72-5.69-13.17-.49-3.42,1.4-7.8,3.36-10.42,2.06-2.75,5.55-5.28,9.34-6.77,20.74-8.17,37.06-11.81,52.91-11.81,5,0,10,.39,14.85,1.15,1.9.3,4.38.74,6.75,1.47,6.78,2.11,11.59,6.05,13.57,11.09,1.91,4.87,1.16,10.49-2.17,16.26-3.52,6.1-8.59,11.2-13.56,13.65-12.84,6.31-27.9,13.04-44.27,13.04-.63,0-1.26,0-1.9-.03-.95.05-1.86.07-2.74.07Z"
        />
        <path
          stroke="currentColor"
          stroke-linecap="round"
          stroke-linejoin="round"
          stroke-width="2"
          d="m375.91,854.99c4.97,0,9.94.39,14.77,1.15,1.88.3,4.34.73,6.67,1.46,6.63,2.06,11.33,5.9,13.25,10.8,1.85,4.72,1.11,10.2-2.14,15.83-3.47,6.02-8.46,11.05-13.35,13.45-12.79,6.28-27.79,12.99-44.05,12.99-.63,0-1.25,0-1.88-.03h-.04s-.04,0-.04,0c-.9.05-1.8.07-2.67.07-12.71,0-22.83-4.82-30.05-14.33-2.88-3.79-4.98-8.63-5.59-12.94-.47-3.28,1.36-7.51,3.27-10.05,2.01-2.68,5.42-5.15,9.13-6.61,20.68-8.14,36.94-11.78,52.73-11.78h0m0-1c-18.32,0-35.87,5.06-53.09,11.85-3.59,1.41-7.29,3.91-9.56,6.94-2.19,2.92-3.95,7.37-3.46,10.79.67,4.68,2.9,9.6,5.79,13.41,7.71,10.15,18.25,14.72,30.85,14.72.9,0,1.81-.02,2.72-.07.64.02,1.28.03,1.91.03,15.9,0,30.45-6.19,44.49-13.09,5.57-2.74,10.6-8.34,13.78-13.85,7.22-12.52,2.07-23.8-11.68-28.08-2.21-.69-4.52-1.13-6.81-1.49-5.04-.79-10.01-1.16-14.93-1.16h0Z"
        />
      </g>
      <path
        stroke="currentColor"
        stroke-linecap="round"
        stroke-linejoin="round"
        stroke-width="2"
        d="m857.55,728.59c-5.99,11.76-13.09,14.69-24.98,9.94-4.14-1.65-8.02-3.94-12.02-5.94"
      />
      <path
        stroke="currentColor"
        stroke-linecap="round"
        stroke-linejoin="round"
        stroke-width="2"
        d="m790.55,642.59c-1.67.33-3.91.09-4.9,1.09-5.9,5.96-12.82,5.53-20.1,3.93-2.3-.5-4.66-.69-6.99-1.03"
      />
      <path
        stroke="currentColor"
        stroke-linecap="round"
        stroke-linejoin="round"
        stroke-width="2"
        d="m705.55,724.59c1.12,5.66-1.1,10.63-5.15,13.8-4.1,3.21-8.79.53-12.83-1.83-1.43-.83-2.68-1.97-4.02-2.97"
      />
      <path
        stroke="currentColor"
        stroke-linecap="round"
        stroke-linejoin="round"
        stroke-width="2"
        d="m898.55,663.59c6.55,7.29,15.32,7,24,7"
      />
      <path
        stroke="currentColor"
        stroke-linecap="round"
        stroke-linejoin="round"
        stroke-width="2"
        d="m649.55,666.59c-2.96,5.98-8.38,6.74-13.98,5.85-3.13-.5-6.02-2.52-9.02-3.85"
      />
      <path
        stroke="currentColor"
        stroke-linecap="round"
        stroke-linejoin="round"
        stroke-width="2"
        d="m1038.55,724.59c-.33,1.67-.15,4.3-1.1,4.81-2.36,1.25-5.44,2.49-7.85,1.96-3.21-.71-6.05-3.1-9.05-4.76"
      />
      <path
        stroke="currentColor"
        stroke-linecap="round"
        stroke-linejoin="round"
        stroke-width="2"
        d="m414.55,244.59v5"
      />
      <path
        stroke="currentColor"
        stroke-linecap="round"
        stroke-linejoin="round"
        stroke-width="2"
        d="m72.55,938.59v4"
      />
      <path
        stroke="currentColor"
        stroke-linecap="round"
        stroke-linejoin="round"
        stroke-width="2"
        d="m102.55,1467.59v3"
      />
    </svg>